<svg width="162" height="15" viewBox="0 0 162 15" fill="none" xmlns="http://www.w3.org/2000/svg">
<path d="M9.29759 5.04474C9.17401 4.65696 9.00781 4.30966 8.79901 4.00284C8.59446 3.69176 8.34943 3.42756 8.06392 3.21023C7.77841 2.98864 7.45241 2.82031 7.08594 2.70526C6.72372 2.5902 6.32528 2.53267 5.89062 2.53267C5.15341 2.53267 4.48864 2.7223 3.89631 3.10156C3.30398 3.48082 2.83523 4.03693 2.49006 4.76989C2.14915 5.49858 1.97869 6.39133 1.97869 7.44815C1.97869 8.50923 2.15128 9.40625 2.49645 10.1392C2.84162 10.8722 3.31463 11.4283 3.91548 11.8075C4.51634 12.1868 5.20028 12.3764 5.96733 12.3764C6.67898 12.3764 7.29901 12.2315 7.82741 11.9418C8.36009 11.652 8.77131 11.2429 9.06108 10.7145C9.35511 10.1818 9.50213 9.5554 9.50213 8.83523L10.0135 8.93111H6.26776V7.30114H11.4134V8.79048C11.4134 9.88991 11.179 10.8445 10.7102 11.6541C10.2457 12.4595 9.60227 13.0817 8.77983 13.5206C7.96165 13.9595 7.02415 14.179 5.96733 14.179C4.78267 14.179 3.7429 13.9062 2.84801 13.3608C1.95739 12.8153 1.26278 12.0419 0.764205 11.0405C0.265625 10.0348 0.0163353 8.84162 0.0163353 7.46094C0.0163353 6.4169 0.161222 5.4794 0.450994 4.64844C0.740767 3.81747 1.14773 3.11222 1.67188 2.53267C2.20028 1.94886 2.82031 1.50355 3.53196 1.19673C4.24787 0.885653 5.02983 0.730113 5.87784 0.730113C6.58523 0.730113 7.24361 0.834517 7.85298 1.04332C8.46662 1.25213 9.01207 1.54829 9.48935 1.93182C9.97088 2.31534 10.3693 2.77131 10.6847 3.29972C11 3.82386 11.2131 4.40554 11.3239 5.04474H9.29759ZM14.6222 14H12.5256L17.2365 0.909091H19.5185L24.2294 14H22.1328L18.4318 3.28693H18.3295L14.6222 14ZM14.9737 8.87358H21.7749V10.5355H14.9737V8.87358ZM26.1199 0.909091H28.5169L32.6845 11.0852H32.8379L37.0055 0.909091H39.4025V14H37.5233V4.52699H37.4018L33.541 13.9808H31.9814L28.1206 4.5206H27.9991V14H26.1199V0.909091ZM42.2741 14V0.909091H50.4815V2.60938H44.2493V6.59801H50.0533V8.2919H44.2493V12.2997H50.5582V14H42.2741ZM57.8835 14V0.909091H66.0014V2.60938H59.8587V6.59801H65.4197V8.2919H59.8587V14H57.8835ZM79.8018 7.45455C79.8018 8.85227 79.5462 10.054 79.0348 11.0597C78.5234 12.0611 77.8224 12.8324 76.9318 13.3736C76.0455 13.9105 75.0376 14.179 73.9084 14.179C72.7749 14.179 71.7628 13.9105 70.8722 13.3736C69.9858 12.8324 69.2869 12.0589 68.7756 11.0533C68.2642 10.0476 68.0085 8.84801 68.0085 7.45455C68.0085 6.05682 68.2642 4.85724 68.7756 3.85582C69.2869 2.85014 69.9858 2.07883 70.8722 1.5419C71.7628 1.00071 72.7749 0.730113 73.9084 0.730113C75.0376 0.730113 76.0455 1.00071 76.9318 1.5419C77.8224 2.07883 78.5234 2.85014 79.0348 3.85582C79.5462 4.85724 79.8018 6.05682 79.8018 7.45455ZM77.8459 7.45455C77.8459 6.3892 77.6733 5.49219 77.3281 4.76349C76.9872 4.03054 76.5185 3.47656 75.9219 3.10156C75.3295 2.7223 74.6584 2.53267 73.9084 2.53267C73.1541 2.53267 72.4808 2.7223 71.8885 3.10156C71.2962 3.47656 70.8274 4.03054 70.4822 4.76349C70.1413 5.49219 69.9709 6.3892 69.9709 7.45455C69.9709 8.51989 70.1413 9.41903 70.4822 10.152C70.8274 10.8807 71.2962 11.4347 71.8885 11.8139C72.4808 12.1889 73.1541 12.3764 73.9084 12.3764C74.6584 12.3764 75.3295 12.1889 75.9219 11.8139C76.5185 11.4347 76.9872 10.8807 77.3281 10.152C77.6733 9.41903 77.8459 8.51989 77.8459 7.45455ZM93.6358 7.45455C93.6358 8.85227 93.3801 10.054 92.8688 11.0597C92.3574 12.0611 91.6564 12.8324 90.7658 13.3736C89.8794 13.9105 88.8716 14.179 87.7424 14.179C86.6088 14.179 85.5968 13.9105 84.7061 13.3736C83.8198 12.8324 83.1209 12.0589 82.6096 11.0533C82.0982 10.0476 81.8425 8.84801 81.8425 7.45455C81.8425 6.05682 82.0982 4.85724 82.6096 3.85582C83.1209 2.85014 83.8198 2.07883 84.7061 1.5419C85.5968 1.00071 86.6088 0.730113 87.7424 0.730113C88.8716 0.730113 89.8794 1.00071 90.7658 1.5419C91.6564 2.07883 92.3574 2.85014 92.8688 3.85582C93.3801 4.85724 93.6358 6.05682 93.6358 7.45455ZM91.6799 7.45455C91.6799 6.3892 91.5073 5.49219 91.1621 4.76349C90.8212 4.03054 90.3525 3.47656 89.7559 3.10156C89.1635 2.7223 88.4924 2.53267 87.7424 2.53267C86.9881 2.53267 86.3148 2.7223 85.7225 3.10156C85.1301 3.47656 84.6614 4.03054 84.3162 4.76349C83.9753 5.49219 83.8049 6.3892 83.8049 7.45455C83.8049 8.51989 83.9753 9.41903 84.3162 10.152C84.6614 10.8807 85.1301 11.4347 85.7225 11.8139C86.3148 12.1889 86.9881 12.3764 87.7424 12.3764C88.4924 12.3764 89.1635 12.1889 89.7559 11.8139C90.3525 11.4347 90.8212 10.8807 91.1621 10.152C91.5073 9.41903 91.6799 8.51989 91.6799 7.45455ZM94.8903 2.60938V0.909091H105.022V2.60938H100.937V14H98.9684V2.60938H94.8903ZM106.615 2.60938V0.909091H116.746V2.60938H112.662V14H110.693V2.60938H106.615ZM118.985 14V0.909091H123.779C124.708 0.909091 125.477 1.0625 126.087 1.36932C126.696 1.67187 127.152 2.0831 127.455 2.60298C127.757 3.11861 127.908 3.70028 127.908 4.34801C127.908 4.89347 127.808 5.35369 127.608 5.72869C127.408 6.09943 127.139 6.39773 126.803 6.62358C126.47 6.84517 126.104 7.0071 125.703 7.10938V7.23722C126.138 7.25852 126.562 7.39915 126.975 7.65909C127.393 7.91477 127.738 8.27912 128.011 8.75213C128.283 9.22514 128.42 9.80043 128.42 10.478C128.42 11.147 128.262 11.7479 127.947 12.2805C127.636 12.8089 127.154 13.2287 126.502 13.5398C125.85 13.8466 125.017 14 124.003 14H118.985ZM120.96 12.3061H123.811C124.757 12.3061 125.435 12.1229 125.844 11.7564C126.253 11.3899 126.457 10.9318 126.457 10.3821C126.457 9.96875 126.353 9.58949 126.144 9.24432C125.935 8.89915 125.637 8.62429 125.249 8.41974C124.866 8.2152 124.41 8.11293 123.881 8.11293H120.96V12.3061ZM120.96 6.57244H123.607C124.05 6.57244 124.448 6.48722 124.802 6.31676C125.16 6.14631 125.443 5.90767 125.652 5.60085C125.865 5.28977 125.972 4.9233 125.972 4.50142C125.972 3.96023 125.782 3.50639 125.403 3.13991C125.023 2.77344 124.442 2.5902 123.658 2.5902H120.96V6.57244ZM131.868 14H129.772L134.483 0.909091H136.765L141.475 14H139.379L135.678 3.28693H135.576L131.868 14ZM132.22 8.87358H139.021V10.5355H132.22V8.87358ZM143.366 14V0.909091H145.341V12.2997H151.273V14H143.366ZM153.526 14V0.909091H155.501V12.2997H161.433V14H153.526Z" fill="black"/>
</svg>
